<svg viewBox="0 0 826.78 254.08" xmlns="http://www.w3.org/2000/svg" data-name="Layer 2" id="Layer_2">
  <defs>
    <style>
      .cls-1 {
        fill: #111011;
      }
    </style>
  </defs>
  <g data-name="Layer 1" id="Layer_1-2">
    <g>
      <path d="m786.01,0H40.78C18.29,0,0,18.29,0,40.77v172.53c0,22.48,18.29,40.77,40.77,40.77h745.24c22.48,0,40.77-18.29,40.77-40.77V40.77c0-22.48-18.29-40.77-40.77-40.77Zm20.31,213.31c0,11.2-9.11,20.31-20.31,20.31H40.77c-11.2,0-20.31-9.11-20.31-20.31V40.77c0-11.2,9.11-20.31,20.31-20.31h745.24c11.2,0,20.31,9.11,20.31,20.31v172.53Z" class="cls-1"></path>
      <path d="m118.43,48.73h-16.03c-.88,0-1.52.24-2.04.77-.55.56-.87,1.27-.96,2.14l-3.46,35.12-7.56-15.57c-.2-.62-.52-1.05-1.01-1.48-.46-.4-1.06-.6-1.84-.6h-6.34c-.78,0-1.38.19-1.83.59-.5.44-.82.88-.94,1.27l-7.64,15.78-3.47-35.13c-.09-.86-.4-1.56-.96-2.13-.51-.53-1.16-.77-2.04-.77h-16.03c-.14,0-.27.03-.44.21-.16.17-.22.34-.22.58l8.1,63.06c.08.68.39,1.26.94,1.8.52.51,1.14.74,1.97.74h13.05c.79,0,1.4-.19,1.86-.57.62-.51.84-.89.91-1.12l9.9-21.46,9.83,21.29c.14.39.36.78.98,1.29.46.38,1.07.57,1.86.57h13.05c.81,0,1.45-.24,1.97-.74.55-.53.85-1.13.94-1.8l8.11-62.94c-.01-.36-.08-.53-.24-.7-.16-.17-.29-.21-.44-.21Z" class="cls-1"></path>
      <path d="m141.55,115.12h19.2c.21,0,.47-.04.76-.35.25-.27.37-.56.37-.93v-22.43h21.42v22.43c0,.37.11.65.37.92.24.26.46.36.76.36h19.2c.3,0,.53-.11.76-.35.26-.27.37-.56.37-.93v-63.83c0-.37-.11-.66-.37-.93-.23-.24-.45-.35-.76-.35h-19.2c-.3,0-.53.1-.75.35-.26.28-.37.56-.37.93v21.65h-21.42v-21.65c0-.37-.11-.66-.37-.93-.23-.24-.46-.35-.76-.35h-19.2c-.3,0-.53.11-.76.35-.25.27-.37.56-.37.93v63.83c0,.54.18.79.33.94.24.24.48.34.8.34Z" class="cls-1"></path>
      <path d="m276.08,50.95c-.4-1.55-1.25-2.21-2.85-2.21h-25.91c-1.6,0-2.45.66-2.85,2.22l-20.34,63.22s-.03.12-.03.46c0,0,.05.11.23.29.16.17.28.2.43.2h17.62c.93,0,2.11-.28,2.89-2.44l2.64-7.84h24.74l2.65,7.86c.77,2.13,1.94,2.41,2.88,2.41h17.61c.15,0,.27-.03.43-.2.2-.21.23-.32.23-.32,0-.32-.04-.45-.04-.45l-20.33-63.19Zm-24.33,37.41l8.52-26.47,8.53,26.47h-17.05Z" class="cls-1"></path>
      <path d="m374.73,48.74h-64.32c-.3,0-.53.11-.76.35-.25.27-.37.56-.37.93v15.91c0,.37.11.66.37.93.24.25.46.35.76.35h21.43v46.64c0,.37.11.65.37.92.24.26.46.36.76.36h19.21c.3,0,.52-.11.75-.35.26-.27.37-.56.37-.93v-46.64h21.43c.21,0,.46-.04.76-.35.26-.27.37-.56.37-.93v-15.91c0-.37-.11-.66-.37-.93-.23-.24-.46-.35-.76-.35Z" class="cls-1"></path>
      <path d="m492.88,73.94c-4.99-.59-8.26-1.15-9.98-1.73-2.79-.93-3.37-2.45-3.37-3.56,0-2.41,2.39-5,7.64-5,2.68,0,5.18,1.1,7.65,3.35.56.53,1.18.76,1.95.76h20.04c.46,0,.61-.14.67-.2.05-.05.18-.18.18-.57,0-4.35-2.76-8.61-8.2-12.66-5.57-4.14-13.02-6.24-22.14-6.24s-16.5,1.95-21.89,5.8c-5.32,3.8-7.9,8.63-7.9,14.76,0,11.35,8.7,18.42,25.16,20.45,5.68.65,9.41,1.31,11.39,2.03,3.07,1.1,3.72,2.79,3.72,4.02,0,2.55-3.21,5.29-10.24,5.29-5.06,0-8.44-2.54-10-4.05-.57-.57-1.27-.82-2.21-.82h-19.11c-.66,0-.75.09-.75.77,0,5.44,2.63,9.92,8.03,13.7,5.48,3.83,13.36,5.77,23.4,5.77s18.2-1.98,24.23-5.88c5.91-3.83,8.78-8.66,8.78-14.77,0-6.52-2.16-11.89-5.93-14.75-4.11-3.11-11.2-5.28-21.09-6.46Z" class="cls-1"></path>
      <path d="m689.07,48.73h-19.48c-.31,0-.54.11-.77.35-.25.26-.36.53-.36.88v37.41c0,2.92-.92,4.93-3.06,6.72-1.96,1.63-4.59,2.46-7.83,2.46s-5.88-.83-7.83-2.46c-2.15-1.79-3.07-3.8-3.07-6.72v-37.41c0-.35-.11-.62-.36-.88-.24-.24-.47-.35-.77-.35h-19.48c-.3,0-.53.11-.77.35-.25.26-.36.54-.36.89v38.32c0,9.58,2.91,16.7,8.64,21.15,5.84,4.53,13.92,6.83,24,6.83s18.15-2.3,23.99-6.83c5.74-4.45,8.65-11.57,8.65-21.15v-38.32c0-.35-.11-.63-.37-.9-.29-.3-.55-.35-.76-.35Z" class="cls-1"></path>
      <path d="m751.71,48.74h-34.86c-.3,0-.53.1-.76.35-.26.27-.37.56-.37.93v63.83c0,.37.11.65.36.92.24.26.46.36.77.36h20.04c.3,0,.53-.1.76-.35.27-.27.37-.56.37-.93v-20.36h13.69c10.02,0,17.16-1.98,21.22-5.89,4.05-3.89,6.1-9.25,6.1-15.94s-2.37-12.14-7.26-16.45c-4.87-4.29-11.62-6.47-20.06-6.47Zm4.12,27.44h0c-1.17,1.2-2.68,1.8-4.48,1.8h-13.23v-13.65h13.23c1.92,0,3.47.7,4.61,2.09,1.08,1.31,1.62,2.97,1.62,4.93s-.59,3.64-1.75,4.82Z" class="cls-1"></path>
      <path d="m210.71,138.86h-16.03c-.88,0-1.52.24-2.04.77-.56.57-.87,1.27-.96,2.14l-3.47,35.12-7.55-15.57c-.19-.61-.52-1.05-1.01-1.49-.46-.4-1.06-.59-1.84-.59h-6.34c-.78,0-1.38.19-1.84.59-.49.43-.82.87-.93,1.27l-7.64,15.78-3.47-35.13c-.09-.86-.41-1.57-.96-2.13-.51-.53-1.16-.77-2.04-.77h-16.03c-.15,0-.27.03-.43.21-.16.17-.23.34-.23.58l8.09,63.06c.09.67.4,1.27.95,1.8.52.51,1.14.74,1.97.74h13.05c.79,0,1.4-.19,1.86-.57.62-.51.84-.89.91-1.12l9.9-21.46,9.83,21.29c.14.4.35.77.98,1.29.46.38,1.07.57,1.86.57h13.05c.82,0,1.45-.24,1.97-.74.55-.54.85-1.12.94-1.79l8.11-62.95c-.01-.36-.08-.53-.24-.7-.16-.17-.29-.21-.43-.21Z" class="cls-1"></path>
      <path d="m291.04,188.76h-40.87v-9.85h30.24c.21,0,.46-.04.77-.36.25-.27.36-.55.36-.93v-11.43c0-.37-.11-.66-.37-.93-.23-.24-.46-.35-.76-.35h-30.24v-9.57h39.94c.3,0,.53-.11.76-.35.26-.27.37-.56.37-.93v-13.94c0-.37-.11-.66-.37-.93-.23-.24-.46-.35-.76-.35h-57.98c-.3,0-.53.11-.76.35-.25.27-.37.56-.37.93v63.83c0,.37.11.66.36.92.24.25.47.36.77.36h58.91c.29,0,.52-.11.76-.35.26-.27.37-.56.37-.93v-13.93c0-.37-.11-.65-.37-.93-.23-.24-.46-.35-.75-.35Z" class="cls-1"></path>
      <path d="m368.45,187.78h-33.18v-47.63c0-.37-.11-.66-.37-.93-.23-.24-.46-.35-.76-.35h-20.13c-.3,0-.53.11-.77.35-.25.27-.37.56-.37.93v63.83c0,.37.11.66.37.93.23.24.46.35.77.35h54.44c.3,0,.53-.11.77-.35.25-.27.36-.56.36-.93v-14.92c0-.37-.11-.66-.37-.93-.29-.31-.55-.35-.76-.35Z" class="cls-1"></path>
      <path d="m440.31,187.78h-33.17v-47.63c0-.37-.11-.66-.37-.93-.23-.24-.45-.35-.75-.35h-20.14c-.3,0-.53.11-.76.35-.25.27-.37.56-.37.93v63.83c0,.37.11.66.37.93.23.24.46.35.76.35h54.44c.3,0,.53-.11.76-.35.25-.27.37-.56.37-.93v-14.92c0-.37-.11-.66-.37-.93-.24-.25-.46-.35-.76-.35Z" class="cls-1"></path>
      <path d="m519.73,138.87h-17.34c-.3,0-.53.11-.77.35-.25.27-.37.56-.37.92v33.54l-22.85-33.45c-.66-.93-1.46-1.37-2.49-1.37h-15.1c-.3,0-.53.11-.77.35-.25.27-.36.55-.36.92v63.83c0,.38.11.65.36.92.24.26.46.36.77.36h17.33c.31,0,.53-.1.77-.35.25-.27.37-.56.37-.93v-31.08l22.82,30.85c.75,1.04,1.57,1.51,2.62,1.51h15.01c.3,0,.52-.11.75-.35.26-.28.37-.56.37-.93v-63.83c0-.37-.11-.65-.37-.93-.29-.31-.55-.35-.76-.35Z" class="cls-1"></path>
      <path d="m606.34,188.76h-40.87v-9.85h30.23c.21,0,.47-.04.77-.36.25-.27.36-.56.36-.93v-11.43c0-.37-.11-.65-.37-.93-.22-.24-.45-.34-.76-.34h-30.23v-9.57h39.93c.3,0,.53-.1.76-.35.26-.27.37-.56.37-.93v-13.94c0-.37-.11-.66-.37-.93-.23-.24-.46-.35-.76-.35h-57.98c-.3,0-.53.11-.76.35-.26.27-.37.56-.37.93v63.83c0,.37.11.66.36.92.24.26.47.36.77.36h58.91c.3,0,.53-.11.76-.35.26-.27.37-.55.37-.93v-13.93c0-.37-.11-.66-.37-.93-.23-.24-.46-.35-.76-.35Z" class="cls-1"></path>
      <path d="m663.1,164.07c-5-.59-8.26-1.15-9.98-1.73-2.79-.93-3.37-2.45-3.37-3.56,0-2.69,2.57-4.06,7.64-4.06,3.32,0,5.9.81,7.65,2.41.56.53,1.18.76,1.95.76h20.04c.46,0,.61-.14.67-.2.05-.05.18-.18.18-.57,0-4.35-2.76-8.61-8.2-12.66-5.56-4.14-13.01-6.24-22.14-6.24s-16.5,1.95-21.89,5.8c-5.32,3.8-7.9,8.63-7.9,14.76,0,11.19,8.94,18.45,25.16,20.45,5.67.65,9.4,1.31,11.39,2.02,2.47.89,3.71,2.25,3.71,4.03,0,3.72-5.85,4.15-10.24,4.15-4.71,0-7.98-.96-10-2.91-.56-.56-1.28-.82-2.21-.82h-19.11c-.66,0-.75.09-.75.77,0,5.44,2.63,9.92,8.03,13.69,5.48,3.83,13.35,5.77,23.39,5.77s18.2-1.98,24.23-5.88c5.91-3.83,8.78-8.66,8.78-14.77,0-6.52-2.16-11.89-5.93-14.75-4.11-3.11-11.2-5.28-21.09-6.46Z" class="cls-1"></path>
      <path d="m748.56,164.07c-5-.59-8.26-1.15-9.97-1.73-2.79-.93-3.37-2.45-3.37-3.56,0-2.69,2.57-4.06,7.64-4.06,3.33,0,5.9.81,7.65,2.42.56.52,1.18.76,1.95.76h20.04c.46,0,.61-.14.67-.2.05-.05.18-.18.18-.57,0-4.35-2.76-8.61-8.2-12.66-5.56-4.14-13.02-6.24-22.15-6.24s-16.5,1.95-21.89,5.8c-5.32,3.8-7.9,8.62-7.9,14.76,0,11.35,8.7,18.42,25.16,20.45,5.67.65,9.4,1.31,11.39,2.02,2.47.89,3.72,2.25,3.72,4.03,0,3.72-5.85,4.15-10.24,4.15-4.71,0-7.99-.96-10.01-2.91-.56-.56-1.28-.82-2.21-.82h-19.1c-.67,0-.76.09-.76.77,0,5.45,2.63,9.92,8.03,13.69,5.48,3.83,13.35,5.77,23.39,5.77s18.21-1.98,24.23-5.88c5.91-3.83,8.78-8.66,8.78-14.77,0-6.52-2.16-11.9-5.93-14.75-4.1-3.11-11.2-5.28-21.09-6.46Z" class="cls-1"></path>
      <path d="m404.77,67.77l4.41.05-.19,1.54c-.72,5.86-1.81,14.92-1.86,15.84-.03.48,0,1.12.32,1.45.33.35,1,.42,1.51.42h6.96c1.73,0,2.74-.28,5.38-6.29,6.45-14.7,10.13-27.24,8.74-29.82-.8-1.48-2.81-2.32-5.51-2.32h-21.41c-.83,0-1.4.25-1.83.81-.47.61-.67,1.49-.59,2.62,0,.1.89,11.06,1.22,13.42.25,1.84.81,2.29,2.85,2.29Z" class="cls-1"></path>
      <path d="m96.81,171.74l17.15-15.89c.39-.39.62-.95.62-1.55s-.23-1.17-.66-1.59l-12.53-12.53c-.85-.85-2.32-.85-3.18,0l-15.85,17.3-15.89-17.34c-.76-.77-2.28-.81-3.14.04l-12.53,12.53c-.88.88-.88,2.3,0,3.18l17.11,15.85-17.15,15.88c-.84.84-.84,2.26.04,3.14l12.53,12.53c.85.85,2.33.85,3.17,0l15.85-17.29,15.89,17.34c.77.77,2.29.8,3.13-.04l12.53-12.53c.88-.88.88-2.31,0-3.18l-17.11-15.85Z" class="cls-1"></path>
    </g>
  </g>
</svg>